<?xml version="1.0" encoding="utf-8"?>
<!-- Generator: Adobe Illustrator 26.0.3, SVG Export Plug-In . SVG Version: 6.00 Build 0)  -->
<svg version="1.1" id="katman_1" xmlns="http://www.w3.org/2000/svg" xmlns:xlink="http://www.w3.org/1999/xlink" x="0px" y="0px"
	 viewBox="0 0 151.2 157" style="enable-background:new 0 0 151.2 157;" xml:space="preserve">
<style type="text/css">
	.st0{fill:#0774B9;}
	.st1{fill:#FAFCFD;}
	.st2{fill:#26A9E1;}
</style>
<path class="st0" d="M10.7,64.2C1,73.5,8.6,84.4,8.6,84.4L68,143.8c11.4,6.7,19.6-2.7,19.6-2.7l32.1-32.1l25.8-25.8
	c3.4-6.3-0.2-13.3-0.2-13.3L87.8,12.4c-11.4-14.7-23.6-1.7-23.6-1.7"/>
<path class="st1" d="M38.3,56c0,0-5.1-28.7,30.3-26.1c0,0,22.8,0,26.1,21.9c0,0,21.9-10.1,29.1,13.9c0,0,2.1,11-7.6,12.6
	c0,0-10.5,2.1-21.9,1.7c0,0,2.9,16.4,27.8,5.9c0,0,3.4,13.5-16.4,14.3c0,0-17.3,1.3-24.9-19.8l-23.2,19.8h37.9
	c0,0,3.4,13.1-6.7,14.7H48c0,0-19.4,0.8-6.7-19l33.3-29.5c0,0,14.7-23.6-15.6-21.9C59,44.6,46.3,45.4,38.3,56z M104.9,60.2
	c-10.1-1.7-11,10.5-11,10.5C105.7,72.8,112,69,112,69C115.4,61.9,104.9,60.2,104.9,60.2z"/>
<path class="st2" d="M121.6,107.1L108.3,136c0,0-7.6,10.1-20.6,5.1"/>
<path class="st2" d="M43.9,119.9L15,106.5c0,0-10.1-7.6-5.1-20.6"/>
<path class="st2" d="M30.3,44.8l13.3-28.9c0,0,7.6-10.1,20.6-5.1"/>
<path class="st2" d="M107.6,32.4l28.9,13.3c0,0,10.1,7.6,5.1,20.6"/>
</svg>
